inDegrees=no
num_controls=7
num_derivatives=13
num_iterations=145
num_multipliers=7
num_parameters=0
num_slacks=7
num_states=26
objective=0.448204
objective_accelerations=0.049304
objective_balance=0.007448
objective_effort=0.036505
objective_height=0.350012
objective_ligament=0.004935
solver_duration=2075.075046
status=Solve_Succeeded
success=true
DataType=double
version=3
OpenSimVersion=4.5
endheader
time	/jointset/ground_pelvis/pelvis_tilt/value	/jointset/ground_pelvis/pelvis_tx/value	/jointset/ground_pelvis/pelvis_ty/value	/jointset/hip_l/hip_flexion_l/value	/jointset/hip_l/hip_adduction_l/value	/jointset/hip_l/hip_rotation_l/value	/jointset/back/lumbar_extension/value	/jointset/patellofemoral_l/patellar_flexion_l/value	/jointset/knee_l/knee_flexion_l/value	/jointset/knee_l/knee_adduction_l/value	/jointset/knee_l/knee_rotation_l/value	/jointset/ankle_l/ankle_angle_l/value	/jointset/subtalar_l/subtalar_angle_l/value	/jointset/ground_pelvis/pelvis_tilt/speed	/jointset/ground_pelvis/pelvis_tx/speed	/jointset/ground_pelvis/pelvis_ty/speed	/jointset/hip_l/hip_flexion_l/speed	/jointset/hip_l/hip_adduction_l/speed	/jointset/hip_l/hip_rotation_l/speed	/jointset/back/lumbar_extension/speed	/jointset/patellofemoral_l/patellar_flexion_l/speed	/jointset/knee_l/knee_flexion_l/speed	/jointset/knee_l/knee_adduction_l/speed	/jointset/knee_l/knee_rotation_l/speed	/jointset/ankle_l/ankle_angle_l/speed	/jointset/subtalar_l/subtalar_angle_l/speed	/forceset/tau_hip_flexion_l	/forceset/tau_hip_adduction_l	/forceset/tau_hip_rotation_l	/forceset/tau_knee_flexion_l	/forceset/tau_ankle_angle_l	/forceset/tau_subtalar_angle_l	/forceset/tau_lumbar_extension	lambda_cid13_p0	lambda_cid13_p1	lambda_cid13_p2	lambda_cid13_p3	lambda_cid13_p4	lambda_cid13_p5	lambda_cid14_p0	/jointset/ground_pelvis/pelvis_tilt/accel	/jointset/ground_pelvis/pelvis_tx/accel	/jointset/ground_pelvis/pelvis_ty/accel	/jointset/hip_l/hip_flexion_l/accel	/jointset/hip_l/hip_adduction_l/accel	/jointset/hip_l/hip_rotation_l/accel	/jointset/back/lumbar_extension/accel	/jointset/patellofemoral_l/patellar_flexion_l/accel	/jointset/knee_l/knee_flexion_l/accel	/jointset/knee_l/knee_adduction_l/accel	/jointset/knee_l/knee_rotation_l/accel	/jointset/ankle_l/ankle_angle_l/accel	/jointset/subtalar_l/subtalar_angle_l/accel	gamma_cid13_p0	gamma_cid13_p1	gamma_cid13_p2	gamma_cid13_p3	gamma_cid13_p4	gamma_cid13_p5	gamma_cid14_p0
1.5	-0.4498141092505695	-0.07511893053074345	0.7615958754436155	1.272761910631991	-0.3097664800477553	-0.04485058957955641	-0.3453208609624029	0.6931097023653432	0.6931097023652241	-0.1729640862748024	0.1742746939632218	0.03640474931912516	-0.04926664894602041	0.7346332314269128	0.2636883572831182	0.4929325761747891	-2.350009991513945	0.03173968948654278	-0.6124470400629087	0.564249571551783	-1.757792575939517	-1.757792575939514	0.006101293254370723	-0.001403123496577139	-0.2361921656380926	0.005859465753319389	-0.2516474139986843	0.0162010865880119	-0.02117822426007971	-0.2010327811626373	0.1398093982696778	0.04525772138113658	0.2263131334160813	6.017429227474639	-23.39064236747263	6.389727876477215	-5.438176955718682	-610.4865432155329	-60.95312921243864	-28.06236171354187	0.645971987888023	0.6837852410009968	-0.2973600581687331	-1.54578120326306	0.5841822792581416	-0.299152274565206	1.753184831403657	-1.096254716054875	-1.096254716054625	0.02443009271855682	-0.01877987036025705	-0.14204154232767	0.5626361047674865	2.76692224913895e-07	7.197301003620526e-07	-1.370449155175394e-06	-8.662022163168767e-08	3.536406366967482e-07	-5.386967713455714e-08	2.998893139182144e-07
1.51	-0.4424358218612504	-0.07244804776722932	0.766509399798008	1.249186656822588	-0.3094209300503409	-0.05098948070120935	-0.3395920646280204	0.6754791823203157	0.6754791823201932	-0.172903971661492	0.1742608959083323	0.03403589112911448	-0.0491810614909769	0.7409235688731676	0.2704605178734122	0.4896751598845274	-2.364723604978808	0.03737506152271812	-0.6152268292385382	0.5814410549301408	-1.768068743544593	-1.768068743544575	0.005895516460044639	-0.00137438293341565	-0.2375280885015883	0.01126422674481289	-0.2436703606504841	0.01550383194902765	-0.02104336174253334	-0.199654339517611	0.1398149548669186	0.04464980520282723	0.2201394090020345	6.257141753735542	-23.27237481342762	6.489412679592442	-5.431064190167919	-606.0594020833796	-61.26314108147809	-29.07612490470854	0.6054853029120494	0.6697948810090646	-0.3544496782713663	-1.386549429398717	0.5538797772432236	-0.2515107705010144	1.691834031857366	-0.9569404126931416	-0.9569404126910416	-0.04684294407544831	0.01119967976734049	-0.1216491849849703	0.5302355469776867	1.789362026673812e-07	9.51687752510004e-07	-9.078460183426364e-07	2.019726614523901e-08	2.950027099495323e-07	2.023818052012886e-08	2.539542764580939e-07
1.52	-0.4349976469614854	-0.06971027071521918	0.7713874465367346	1.225473787276275	-0.3090188933102758	-0.05715299342090872	-0.3336934126716933	0.6577531720732461	0.65775317207312	-0.1728466670918375	0.1742468849910952	0.03165521740514359	-0.04904125853589095	0.7466107335161377	0.2770672149823239	0.4858370530416076	-2.377533138895703	0.04303703801673558	-0.6173713596717355	0.5982206959407202	-1.776890616348037	-1.776890616348005	0.00553928452302766	-0.00144569596573506	-0.2385552724300622	0.01670256576180248	-0.2356933073022905	0.01480657731003514	-0.02090849922498372	-0.1982758978725878	0.1398205114641565	0.04404188902450887	0.2139656845879838	6.489465559483114	-23.15545272015222	6.592326833454646	-5.414276118480609	-601.7533760312629	-61.63493828982273	-30.07252654780774	0.5253374272311137	0.6506925447245623	-0.4134981687003718	-1.164965293669514	0.5895031708265639	-0.1721005260787744	1.670816357847988	-0.8053957557284455	-0.8053957557284857	-0.005660935819627072	-0.03879058945643826	-0.08029375532330117	0.5693517098667027	1.132136252935195e-07	1.122407759464126e-06	-6.048110671084262e-07	9.084849678934702e-08	2.613224532792903e-07	7.4651094839812e-08	2.247213252401901e-07
1.53	-0.4275056388813482	-0.06690733540332368	0.7762242458116247	1.201642448033867	-0.3085600691967665	-0.06333550597459234	-0.3276292189640639	0.6399464092364677	0.6399464092364409	-0.1727931378460869	0.1742321932634195	0.029265860811718	-0.04884685356976824	0.751684227123362	0.2834831672965358	0.4814289721700216	-2.388400491130938	0.04873102829812953	-0.6190433252350859	0.6145323494287611	-1.784205300196505	-1.784205300196345	0.005158844796750967	-0.001497411502045114	-0.2392626771280676	0.02218360053353675	-0.2276191909810945	0.01399809167040847	-0.02080029529495823	-0.1968793135413657	0.1398013335374971	0.04326581479028119	0.2076593324549265	6.709474015381315	-22.96436319630443	6.684581489466959	-5.340843889912377	-597.4237139622102	-61.88632556277009	-31.0472410297167	0.4823726245691558	0.6315726246772619	-0.4684874463167046	-0.9974678133699293	0.5597203052045562	-0.1513553915701952	1.59848542081183	-0.6560484947049248	-0.6560484946856111	-0.05518834320158274	0.01106498826981418	-0.05794446856225727	0.5380998751387415	8.152658309685034e-08	1.228062768399806e-06	-4.7131731307267e-07	1.230730792298356e-07	2.541597210658329e-07	1.081381318660549e-07	2.132343406546413e-07
